<?xml version="1.0" encoding="UTF-8" standalone="no"?>
<!-- Created with Inkscape (http://www.inkscape.org/) -->

<svg
   xmlns:dc="http://purl.org/dc/elements/1.1/"
   xmlns:cc="http://creativecommons.org/ns#"
   xmlns:rdf="http://www.w3.org/1999/02/22-rdf-syntax-ns#"
   xmlns:svg="http://www.w3.org/2000/svg"
   xmlns="http://www.w3.org/2000/svg"
   xmlns:xlink="http://www.w3.org/1999/xlink"
   xmlns:sodipodi="http://sodipodi.sourceforge.net/DTD/sodipodi-0.dtd"
   xmlns:inkscape="http://www.inkscape.org/namespaces/inkscape"
   width="1024"
   height="1024"
   id="svg2"
   version="1.1"
   inkscape:version="0.48.4 r9939"
   sodipodi:docname="DSPD_Icon2.svg">
  <defs
     id="defs4">
    <linearGradient
       id="linearGradient3771">
      <stop
         style="stop-color:#d1d1d1;stop-opacity:1;"
         offset="0"
         id="stop3773" />
      <stop
         style="stop-color:#b2b2b2;stop-opacity:0;"
         offset="1"
         id="stop3775" />
    </linearGradient>
    <radialGradient
       inkscape:collect="always"
       xlink:href="#linearGradient3771"
       id="radialGradient3777"
       cx="-116.73857"
       cy="141.01434"
       fx="-116.73857"
       fy="141.01434"
       r="500"
       gradientTransform="matrix(0.1715807,0.92678704,-0.71900895,0.13311375,515.1884,430.96021)"
       gradientUnits="userSpaceOnUse" />
  </defs>
  <sodipodi:namedview
     id="base"
     pagecolor="#ffffff"
     bordercolor="#666666"
     borderopacity="1.0"
     inkscape:pageopacity="0.0"
     inkscape:pageshadow="2"
     inkscape:zoom="0.59980234"
     inkscape:cx="506.00002"
     inkscape:cy="512"
     inkscape:document-units="px"
     inkscape:current-layer="layer1"
     showgrid="false"
     inkscape:window-width="1120"
     inkscape:window-height="896"
     inkscape:window-x="1332"
     inkscape:window-y="69"
     inkscape:window-maximized="0"
     fit-margin-top="12"
     fit-margin-bottom="12"
     fit-margin-right="12"
     fit-margin-left="12" />
  <metadata
     id="metadata7">
    <rdf:RDF>
      <cc:Work
         rdf:about="">
        <dc:format>image/svg+xml</dc:format>
        <dc:type
           rdf:resource="http://purl.org/dc/dcmitype/StillImage" />
        <dc:title></dc:title>
      </cc:Work>
    </rdf:RDF>
  </metadata>
  <g
     inkscape:label="Ebene 1"
     inkscape:groupmode="layer"
     id="layer1"
     transform="translate(0,-28.362183)">
    <path
       sodipodi:type="arc"
       style="fill:#000000;fill-opacity:1;fill-rule:evenodd;stroke:none"
       id="path2999"
       sodipodi:cx="580.52045"
       sodipodi:cy="462.3967"
       sodipodi:rx="121.77924"
       sodipodi:ry="131.23782"
       d="m 702.29969,462.3967 a 121.77924,131.23782 0 1 1 -243.55849,0 121.77924,131.23782 0 1 1 243.55849,0 z"
       transform="matrix(4.10579,0,0,3.8098773,-1871.495,-1221.3125)" />
    <path
       style="fill:#4b4b4b;fill-opacity:1;stroke:none"
       d="M 512 12 C 398.18116 12 293.25839 50.046506 209.21875 114.09375 L 288.53125 159.90625 L 268.53125 194.53125 L 176.4375 141.34375 C 173.18319 144.29166 169.98796 147.28097 166.8125 150.3125 L 279.96875 215.65625 L 259.96875 250.3125 L 138.15625 179.96875 C 59.669042 268.26848 12 384.56499 12 512 C 12 686.86774 101.7816 840.75959 237.75 930.125 L 527.6875 427.96875 L 336.59375 317.625 L 362.875 272.125 L 345.125 261.875 L 385.125 192.59375 L 593.96875 313.15625 L 650.8125 214.6875 L 962.0625 394.40625 L 611.1875 1002.1562 C 839.82024 956.14708 1012 754.18562 1012 512 C 1012 235.85763 788.14237 12 512 12 z M 246.5625 336.65625 C 247.8494 336.62221 249.11514 336.67057 250.375 336.78125 C 260.45415 337.66723 275.01964 343.59954 294.0625 354.59375 L 303.53125 360.0625 L 270.125 417.9375 L 252.34375 407.6875 C 244.05576 402.90254 238.37401 400.5804 235.25 400.75 C 232.12629 400.92 229.55647 402.73431 227.5625 406.1875 C 225.39795 409.93708 225.30229 413.65396 227.25 417.34375 C 229.19803 421.03391 233.28405 424.69256 239.5 428.28125 C 247.49227 432.89568 254.10773 435.27276 259.40625 435.4375 C 264.64806 435.70124 272.94467 432.64687 284.25 426.28125 C 316.73516 408.06901 340.31526 398.42011 355.03125 397.3125 C 369.7473 396.2053 388.8607 402.44226 412.34375 416 C 429.41332 425.85532 440.84128 435.11413 446.625 443.78125 C 452.4086 452.44869 454.72567 464.0805 453.59375 478.6875 C 452.4617 493.29475 447.52273 508.18018 438.75 523.375 C 429.12268 540.05 417.74719 552.48002 404.625 560.625 C 391.50277 568.77006 379.00091 571.8327 367.125 569.84375 C 355.24913 567.85486 340.33267 561.68038 322.375 551.3125 L 306.6875 542.25 L 340.09375 484.375 L 369.25 501.21875 C 378.22882 506.40276 384.46344 508.92825 387.96875 508.78125 C 391.47406 508.63444 394.41991 506.48791 396.8125 502.34375 C 399.20507 498.19979 399.36948 494.18394 397.28125 490.28125 C 395.193 486.37878 390.94468 482.57792 384.53125 478.875 C 370.42171 470.72897 360.09436 467.31483 353.53125 468.65625 C 346.91124 470.0966 334.04407 475.62672 314.9375 485.25 C 295.73241 494.81654 282.35529 500.77043 274.8125 503.125 C 267.26994 505.47977 258.44171 505.95415 248.34375 504.53125 C 238.24607 503.10854 226.82212 498.72374 214.09375 491.375 C 195.74165 480.77942 183.68603 470.67971 177.90625 461.09375 C 172.12689 451.50807 169.87222 440.09685 171.125 426.875 C 172.37822 413.65349 177.26779 399.64419 185.8125 384.84375 C 195.15514 368.66239 205.72242 356.40847 217.53125 348.03125 C 227.86427 340.70162 237.55423 336.89453 246.5625 336.65625 z M 600.90625 435.65625 C 597.47718 435.66215 593.97063 436.01401 590.40625 436.71875 C 580.90153 438.59861 571.69923 444.05098 562.8125 453.0625 C 553.9261 462.07453 540.81236 481.62516 523.4375 511.71875 L 496.5 558.34375 L 736.125 696.6875 L 781.5 618.09375 C 790.10183 603.19495 795.7305 591.55893 798.375 583.21875 C 801.01936 574.87882 801.75189 567.02132 800.5625 559.625 C 799.37297 552.22898 795.70924 545.42862 789.625 539.21875 C 783.54063 533.00922 769.75964 523.70006 748.25 511.28125 L 664.34375 462.84375 C 641.65014 449.7418 626.01184 441.622 617.46875 438.53125 C 612.12946 436.59987 606.62137 435.64641 600.90625 435.65625 z M 162.4375 495.0625 C 168.15262 495.05266 173.69196 496.03737 179.03125 497.96875 C 187.57434 501.0595 203.18139 509.14805 225.875 522.25 L 309.8125 570.6875 C 331.32214 583.10631 345.10313 592.41547 351.1875 598.625 C 357.27174 604.83487 360.90422 611.66648 362.09375 619.0625 C 363.28314 626.45882 362.55061 634.31632 359.90625 642.65625 C 357.26175 650.99643 351.66433 662.6012 343.0625 677.5 L 297.6875 756.09375 L 58.0625 617.75 L 84.96875 571.125 C 102.34361 541.03141 115.4886 521.48078 124.375 512.46875 C 133.26173 503.45723 142.46403 498.03611 151.96875 496.15625 C 155.53313 495.45151 159.00843 495.0684 162.4375 495.0625 z M 588.625 505.53125 C 588.87413 505.51869 589.12254 505.52682 589.375 505.53125 C 590.5868 505.55252 591.8285 505.78435 593.125 506.1875 C 596.58261 507.26297 603.74037 510.92142 614.59375 517.1875 L 707.6875 570.9375 C 723.67176 580.16614 732.87614 586.84882 735.28125 591 C 737.68634 595.15141 736.27766 601.74005 731.09375 610.71875 L 573.46875 519.6875 C 577.39957 512.87959 580.80155 508.67215 583.65625 507.03125 C 585.21757 506.1341 586.8811 505.61916 588.625 505.53125 z M 150.90625 564.96875 C 148.88659 564.93329 147.00312 565.41219 145.21875 566.4375 C 142.36405 568.0784 138.96207 572.31709 135.03125 579.125 L 292.65625 670.125 C 297.84016 661.1463 299.21759 654.58891 296.8125 650.4375 C 294.40739 646.28632 285.23426 639.57239 269.25 630.34375 L 176.15625 576.625 C 165.30287 570.35892 158.14511 566.66922 154.6875 565.59375 C 153.391 565.1906 152.11805 564.99002 150.90625 564.96875 z M 503.65625 595.96875 C 500.71787 596.01129 497.78668 596.36905 494.90625 597 C 487.2254 598.68306 479.43357 603.31778 471.5 610.90625 C 463.56677 618.49522 454.70461 630.74804 444.90625 647.71875 L 408.65625 710.5 L 648.28125 848.84375 L 684.25 786.53125 L 587.75 730.8125 L 597.40625 714.09375 C 605.26761 700.47769 609.75382 688.35102 610.875 677.75 C 611.99624 667.14934 609.99506 658.26468 604.8125 651.0625 C 599.63001 643.86074 589.38738 635.82998 574.09375 627 L 553.21875 614.96875 C 538.22128 606.31015 526.68725 600.72103 518.59375 598.21875 C 513.53546 596.65515 508.55355 595.89786 503.65625 595.96875 z M 501 657.65625 C 504.85387 657.62328 510.12742 659.53351 516.78125 663.375 L 536.46875 674.75 C 545.34899 679.87713 550.53228 684.34411 552.0625 688.1875 C 553.59289 692.03124 552.71037 696.83991 549.40625 702.5625 C 548.66578 703.84534 547.74915 705.34359 546.625 707.0625 L 485.625 671.84375 C 490.29637 663.75315 494.61482 659.14142 498.5625 658 C 499.30274 657.78606 500.11065 657.66386 501 657.65625 z "
       transform="translate(0,28.362183)"
       id="path2993" />
    <path
       id="path3001"
       d="m 512,40.362183 c -113.81884,0 -218.74161,38.046506 -302.78125,102.093747 l 79.3125,45.8125 -20,34.625 -92.09375,-53.1875 c -3.25431,2.94791 -6.44954,5.93722 -9.625,8.96875 l 113.15625,65.34375 -20,34.65625 -121.8125,-70.34375 C 59.669042,296.63066 12,412.92717 12,540.36218 c 0,174.86774 89.7816,328.75959 225.75,418.125 L 527.6875,456.33093 336.59375,345.98718 l 26.28125,-45.5 -17.75,-10.25 40,-69.28125 208.84375,120.5625 56.84375,-98.46875 311.25,179.71875 -350.875,607.74997 C 839.82024,984.50926 1012,782.5478 1012,540.36218 1012,264.21981 788.14237,40.362183 512,40.362183 z M 246.5625,365.01843 c 1.2869,-0.034 2.55264,0.0143 3.8125,0.125 10.07915,0.88598 24.64464,6.81829 43.6875,17.8125 l 9.46875,5.46875 -33.40625,57.875 -17.78125,-10.25 c -8.28799,-4.78496 -13.96974,-7.1071 -17.09375,-6.9375 -3.12371,0.17 -5.69353,1.98431 -7.6875,5.4375 -2.16455,3.74958 -2.26021,7.46646 -0.3125,11.15625 1.94803,3.69016 6.03405,7.34881 12.25,10.9375 7.99227,4.61443 14.60773,6.99151 19.90625,7.15625 5.24181,0.26374 13.53842,-2.79063 24.84375,-9.15625 32.48516,-18.21224 56.06526,-27.86114 70.78125,-28.96875 14.71605,-1.1072 33.82945,5.12976 57.3125,18.6875 17.06957,9.85532 28.49753,19.11413 34.28125,27.78125 5.7836,8.66744 8.10067,20.29925 6.96875,34.90625 -1.13205,14.60725 -6.07102,29.49268 -14.84375,44.6875 -9.62732,16.675 -21.00281,29.10502 -34.125,37.25 -13.12223,8.14506 -25.62409,11.2077 -37.5,9.21875 -11.87587,-1.98889 -26.79233,-8.16337 -44.75,-18.53125 l -15.6875,-9.0625 33.40625,-57.875 29.15625,16.84375 c 8.97882,5.18401 15.21344,7.7095 18.71875,7.5625 3.50531,-0.14681 6.45116,-2.29334 8.84375,-6.4375 2.39257,-4.14396 2.55698,-8.15981 0.46875,-12.0625 -2.08825,-3.90247 -6.33657,-7.70333 -12.75,-11.40625 -14.10954,-8.14603 -24.43689,-11.56017 -31,-10.21875 -6.62001,1.44035 -19.48718,6.97047 -38.59375,16.59375 -19.20509,9.56654 -32.58221,15.52043 -40.125,17.875 -7.54256,2.35477 -16.37079,2.82915 -26.46875,1.40625 -10.09768,-1.42271 -21.52163,-5.80751 -34.25,-13.15625 -18.3521,-10.59558 -30.40772,-20.69529 -36.1875,-30.28125 -5.77936,-9.58568 -8.03403,-20.9969 -6.78125,-34.21875 1.25322,-13.22151 6.14279,-27.23081 14.6875,-42.03125 9.34264,-16.18136 19.90992,-28.43528 31.71875,-36.8125 10.33302,-7.32963 20.02298,-11.13672 29.03125,-11.375 z m 354.34375,99 c -3.42907,0.006 -6.93562,0.35776 -10.5,1.0625 -9.50472,1.87986 -18.70702,7.33223 -27.59375,16.34375 -8.8864,9.01203 -22.00014,28.56266 -39.375,58.65625 L 496.5,586.70593 736.125,725.04968 781.5,646.45593 c 8.60183,-14.8988 14.2305,-26.53482 16.875,-34.875 2.64436,-8.33993 3.37689,-16.19743 2.1875,-23.59375 -1.18953,-7.39602 -4.85326,-14.19638 -10.9375,-20.40625 -6.08437,-6.20953 -19.86536,-15.51869 -41.375,-27.9375 l -83.90625,-48.4375 c -22.69361,-13.10195 -38.33191,-21.22175 -46.875,-24.3125 -5.33929,-1.93138 -10.84738,-2.88484 -16.5625,-2.875 z M 162.4375,523.42468 c 5.71512,-0.01 11.25446,0.97487 16.59375,2.90625 8.54309,3.09075 24.15014,11.1793 46.84375,24.28125 l 83.9375,48.4375 c 21.50964,12.41881 35.29063,21.72797 41.375,27.9375 6.08424,6.20987 9.71672,13.04148 10.90625,20.4375 1.18939,7.39632 0.45686,15.25382 -2.1875,23.59375 -2.6445,8.34018 -8.24192,19.94495 -16.84375,34.84375 l -45.375,78.59375 -239.625,-138.34375 26.90625,-46.625 c 17.37486,-30.09359 30.51985,-49.64422 39.40625,-58.65625 8.88673,-9.01152 18.08903,-14.43264 27.59375,-16.3125 3.56438,-0.70474 7.03968,-1.08785 10.46875,-1.09375 z m 426.1875,10.46875 c 0.24913,-0.0126 0.49754,-0.004 0.75,0 1.2118,0.0213 2.4535,0.2531 3.75,0.65625 3.45761,1.07547 10.61537,4.73392 21.46875,11 l 93.09375,53.75 c 15.98426,9.22864 25.18864,15.91132 27.59375,20.0625 2.40509,4.15141 0.99641,10.74005 -4.1875,19.71875 l -157.625,-91.03125 c 3.93082,-6.80791 7.3328,-11.01535 10.1875,-12.65625 1.56132,-0.89715 3.22485,-1.41209 4.96875,-1.5 z m -437.71875,59.4375 c -2.01966,-0.0355 -3.90313,0.44344 -5.6875,1.46875 -2.8547,1.6409 -6.25668,5.87959 -10.1875,12.6875 l 157.625,91 c 5.18391,-8.9787 6.56134,-15.53609 4.15625,-19.6875 -2.40511,-4.15118 -11.57824,-10.86511 -27.5625,-20.09375 l -93.09375,-53.71875 c -10.85338,-6.26608 -18.01114,-9.95578 -21.46875,-11.03125 -1.2965,-0.40315 -2.56945,-0.60373 -3.78125,-0.625 z m 352.75,31 c -2.93838,0.0425 -5.86957,0.4003 -8.75,1.03125 -7.68085,1.68306 -15.47268,6.31778 -23.40625,13.90625 -7.93323,7.58897 -16.79539,19.84179 -26.59375,36.8125 l -36.25,62.78125 239.625,138.34375 35.96875,-62.3125 -96.5,-55.71875 9.65625,-16.71875 c 7.86136,-13.61606 12.34757,-25.74273 13.46875,-36.34375 1.12124,-10.60066 -0.87994,-19.48532 -6.0625,-26.6875 -5.18249,-7.20176 -15.42512,-15.23252 -30.71875,-24.0625 l -20.875,-12.03125 c -14.99747,-8.6586 -26.5315,-14.24772 -34.625,-16.75 -5.05829,-1.5636 -10.0402,-2.32089 -14.9375,-2.25 z M 501,686.01843 c 3.85387,-0.033 9.12742,1.87726 15.78125,5.71875 l 19.6875,11.375 c 8.88024,5.12713 14.06353,9.59411 15.59375,13.4375 1.53039,3.84374 0.64787,8.65241 -2.65625,14.375 -0.74047,1.28284 -1.6571,2.78109 -2.78125,4.5 l -61,-35.21875 c 4.67137,-8.0906 8.98982,-12.70233 12.9375,-13.84375 0.74024,-0.21394 1.54815,-0.33614 2.4375,-0.34375 z"
       style="fill:url(#radialGradient3777);fill-opacity:1;stroke:none"
       inkscape:connector-curvature="0" />
  </g>
</svg>
