<?xml version="1.0" encoding="UTF-8" standalone="no"?>
<!-- Created with Inkscape (http://www.inkscape.org/) -->

<svg
   xmlns:dc="http://purl.org/dc/elements/1.1/"
   xmlns:cc="http://creativecommons.org/ns#"
   xmlns:rdf="http://www.w3.org/1999/02/22-rdf-syntax-ns#"
   xmlns:svg="http://www.w3.org/2000/svg"
   xmlns="http://www.w3.org/2000/svg"
   xmlns:xlink="http://www.w3.org/1999/xlink"
   xmlns:sodipodi="http://sodipodi.sourceforge.net/DTD/sodipodi-0.dtd"
   xmlns:inkscape="http://www.inkscape.org/namespaces/inkscape"
   width="1024"
   height="1024"
   id="svg2"
   version="1.1"
   inkscape:version="0.48.4 r9939"
   sodipodi:docname="DSPD_Icon2.svg">
  <defs
     id="defs4">
    <linearGradient
       id="linearGradient3773">
      <stop
         style="stop-color:#d0d0d0;stop-opacity:1;"
         offset="0"
         id="stop3775" />
      <stop
         style="stop-color:#8b8b8b;stop-opacity:0;"
         offset="1"
         id="stop3777" />
    </linearGradient>
    <radialGradient
       inkscape:collect="always"
       xlink:href="#linearGradient3773"
       id="radialGradient3779"
       cx="263.90674"
       cy="322.8093"
       fx="263.90674"
       fy="322.8093"
       r="500"
       gradientTransform="matrix(0.16840332,0.86456465,-0.85923058,0.16736433,555.27019,29.076235)"
       gradientUnits="userSpaceOnUse" />
  </defs>
  <sodipodi:namedview
     id="base"
     pagecolor="#ffffff"
     bordercolor="#666666"
     borderopacity="1.0"
     inkscape:pageopacity="0.0"
     inkscape:pageshadow="2"
     inkscape:zoom="0.60699999"
     inkscape:cx="512"
     inkscape:cy="512.00002"
     inkscape:document-units="px"
     inkscape:current-layer="layer1"
     showgrid="false"
     inkscape:window-width="1120"
     inkscape:window-height="896"
     inkscape:window-x="111"
     inkscape:window-y="45"
     inkscape:window-maximized="0"
     fit-margin-top="12"
     fit-margin-bottom="12"
     fit-margin-right="12"
     fit-margin-left="12" />
  <metadata
     id="metadata7">
    <rdf:RDF>
      <cc:Work
         rdf:about="">
        <dc:format>image/svg+xml</dc:format>
        <dc:type
           rdf:resource="http://purl.org/dc/dcmitype/StillImage" />
        <dc:title />
      </cc:Work>
    </rdf:RDF>
  </metadata>
  <g
     inkscape:label="Ebene 1"
     inkscape:groupmode="layer"
     id="layer1"
     transform="translate(0,-28.362183)">
    <path
       transform="matrix(1.7464999,0,0,1.6399062,-396.17997,-307.23498)"
       d="m 805.71429,516.85712 a 285.71429,304.28571 0 1 1 -571.42858,0 285.71429,304.28571 0 1 1 571.42858,0 z"
       sodipodi:ry="304.28571"
       sodipodi:rx="285.71429"
       sodipodi:cy="516.85712"
       sodipodi:cx="520"
       id="path2992"
       style="fill:#ffffff;fill-opacity:1;stroke:none"
       sodipodi:type="arc" />
    <path
       style="fill:#3c3c3c;fill-opacity:1;stroke:none"
       d="M 512 12 C 349.70117 12 205.46862 89.333699 114.125 209.15625 L 214.8125 236.15625 L 204.46875 274.78125 L 89.78125 244.0625 C 87.440229 247.74397 85.152823 251.47271 82.90625 255.21875 L 221 292.21875 L 210.65625 330.875 L 63.21875 291.34375 C 30.434909 357.89624 12 432.79903 12 512 C 12 737.3176 161.03499 927.81818 365.90625 990.3125 L 515.21875 433.1875 L 302.0625 376.0625 L 315.65625 325.3125 L 295.875 320 L 316.59375 242.71875 L 549.5 305.15625 L 578.9375 195.3125 L 926.09375 288.34375 L 748.03125 952.875 C 905.151 868.5848 1012 702.77949 1012 512 C 1012 235.85763 788.14237 12 512 12 z M 229.9375 416.28125 C 239.75167 415.99105 253.3054 418.15737 270.5625 422.78125 L 281.125 425.625 L 263.8125 490.15625 L 244 484.875 C 234.75598 482.39818 228.66117 481.62137 225.6875 482.59375 C 222.71423 483.56643 220.71978 485.99215 219.6875 489.84375 C 218.56717 494.0258 219.41366 497.62754 222.25 500.6875 C 225.08674 503.74773 229.97329 506.23615 236.90625 508.09375 C 245.82049 510.48239 252.87063 511.05598 258.03125 509.84375 C 263.16271 508.74183 270.35244 503.6685 279.625 494.59375 C 306.28958 468.5943 326.57212 453.12864 340.5 448.25 C 354.42805 443.37173 374.49562 444.45083 400.6875 451.46875 C 419.72618 456.57033 433.17014 462.56264 441 469.4375 C 448.82983 476.31269 454.09403 486.94151 456.78125 501.34375 C 459.46841 515.74626 458.54109 531.42738 454 548.375 C 449.01653 566.97354 441.22324 581.89253 430.65625 593.15625 C 420.08925 604.42005 408.82978 610.62872 396.84375 611.78125 C 384.85777 612.93383 368.84168 610.83556 348.8125 605.46875 L 331.3125 600.78125 L 348.625 536.25 L 381.125 544.96875 C 391.1396 547.65223 397.83967 548.45548 401.1875 547.40625 C 404.53537 546.3572 406.82403 543.52845 408.0625 538.90625 C 409.301 534.28425 408.40217 530.35423 405.375 527.125 C 402.34787 523.89599 397.24704 521.32308 390.09375 519.40625 C 374.35663 515.18961 363.49229 514.56813 357.5 517.5625 C 351.47835 520.66716 340.49609 529.35323 324.53125 543.59375 C 308.45656 557.80497 297.08261 567.02344 290.40625 571.25 C 283.73015 575.47669 275.30965 578.19837 265.1875 579.4375 C 255.06566 580.67674 242.9154 579.39774 228.71875 575.59375 C 208.24964 570.10908 194.00137 563.48216 185.9375 555.71875 C 177.87411 547.9555 172.71197 537.53307 170.5 524.4375 C 168.28854 511.34215 169.42083 496.53891 173.84375 480.03125 C 178.68 461.9832 185.69923 447.39812 194.9375 436.25 C 204.17622 425.10228 213.78538 418.62833 223.75 416.875 C 225.61844 416.54633 227.67269 416.34822 229.9375 416.28125 z M 599.59375 420 C 592.29371 420.14045 585.12696 421.93252 578.0625 425.40625 C 569.36818 429.68206 561.87657 437.33923 555.625 448.34375 C 549.37389 459.34867 541.77528 481.62238 532.78125 515.1875 L 518.84375 567.1875 L 786.09375 638.8125 L 809.59375 551.15625 C 814.04638 534.5388 816.44795 521.83419 816.84375 513.09375 C 817.23948 504.35359 815.90692 496.58646 812.84375 489.75 C 809.78052 482.91387 804.51541 477.26731 797.03125 472.84375 C 789.54706 468.42055 773.80344 462.99104 749.8125 456.5625 L 656.21875 431.5 C 630.90737 424.71802 613.73943 420.93058 604.6875 420.15625 C 602.99033 420.01115 601.27837 419.96759 599.59375 420 z M 597.34375 491.8125 C 597.7759 491.7919 598.20403 491.79455 598.65625 491.8125 C 602.2744 491.95643 610.14466 493.6315 622.25 496.875 L 726.09375 524.6875 C 743.92191 529.46465 754.50869 533.55026 757.90625 536.9375 C 761.30386 540.32497 761.68341 547.04804 759 557.0625 L 583.1875 509.9375 C 585.22236 502.34419 587.41727 497.38634 589.75 495.0625 C 591.79147 493.02942 594.3187 491.95668 597.34375 491.8125 z M 191.46875 590.875 C 193.15337 590.84259 194.83408 590.88615 196.53125 591.03125 C 205.58318 591.80558 222.78237 595.59302 248.09375 602.375 L 341.6875 627.4375 C 365.67844 633.86604 381.42206 639.29555 388.90625 643.71875 C 396.39041 648.14231 401.65552 653.78887 404.71875 660.625 C 407.78192 667.46146 409.11448 675.22859 408.71875 683.96875 C 408.32295 692.70919 405.89013 705.4138 401.4375 722.03125 L 377.96875 809.6875 L 110.71875 738.0625 L 124.625 686.0625 C 133.61903 652.49738 141.24889 630.22367 147.5 619.21875 C 153.75157 608.21423 161.24318 600.55706 169.9375 596.28125 C 177.00196 592.80752 184.16871 591.01545 191.46875 590.875 z M 547.34375 599.96875 C 540.09888 600.11755 533.42345 601.77592 527.3125 604.9375 C 520.32897 608.55117 513.98045 615.05424 508.28125 624.4375 C 502.5825 633.82115 497.19715 647.9778 492.125 666.90625 L 473.375 736.875 L 740.625 808.5 L 759.25 739 L 651.625 710.15625 L 656.625 691.5 C 660.6944 676.31323 661.87952 663.46748 660.21875 652.9375 C 658.55813 642.40785 654.30753 634.33418 647.4375 628.71875 C 640.56765 623.10371 628.58913 618.00832 611.53125 613.4375 L 588.25 607.1875 C 571.52254 602.70557 558.93411 600.32226 550.46875 600 C 549.41063 599.95977 548.37873 599.94749 547.34375 599.96875 z M 552.84375 661.4375 C 556.20472 661.36774 560.45589 662.02963 565.59375 663.40625 L 587.5625 669.28125 C 597.46715 671.93531 603.65218 674.93362 606.125 678.25 C 608.59808 681.56667 608.96042 686.39848 607.25 692.78125 C 606.86679 694.21203 606.35971 695.92371 605.71875 697.875 L 537.71875 679.65625 C 540.13695 670.63229 543.10726 665.03051 546.625 662.90625 C 548.16418 661.97702 550.22966 661.49176 552.84375 661.4375 z M 189.21875 662.6875 C 186.1937 662.83168 183.63522 663.90442 181.59375 665.9375 C 179.26102 668.26134 177.09736 673.21919 175.0625 680.8125 L 350.84375 727.9375 C 353.52716 717.92304 353.17886 711.19997 349.78125 707.8125 C 346.38369 704.42526 335.76566 700.33965 317.9375 695.5625 L 214.125 667.75 C 202.01966 664.5065 194.1494 662.83143 190.53125 662.6875 C 190.07903 662.66955 189.6509 662.6669 189.21875 662.6875 z "
       transform="translate(0,28.362183)"
       id="path2993" />
    <path
       id="path3771"
       transform="translate(0,28.362183)"
       d="M 512 12 C 349.70117 12 205.46862 89.333699 114.125 209.15625 L 214.8125 236.15625 L 204.46875 274.78125 L 89.78125 244.0625 C 87.440229 247.74397 85.152823 251.47271 82.90625 255.21875 L 221 292.21875 L 210.65625 330.875 L 63.21875 291.34375 C 30.434909 357.89624 12 432.79903 12 512 C 12 737.3176 161.03499 927.81818 365.90625 990.3125 L 515.21875 433.1875 L 302.0625 376.0625 L 315.65625 325.3125 L 295.875 320 L 316.59375 242.71875 L 549.5 305.15625 L 578.9375 195.3125 L 926.09375 288.34375 L 748.03125 952.875 C 905.151 868.5848 1012 702.77949 1012 512 C 1012 235.85763 788.14237 12 512 12 z M 229.9375 416.28125 C 239.75167 415.99105 253.3054 418.15737 270.5625 422.78125 L 281.125 425.625 L 263.8125 490.15625 L 244 484.875 C 234.75598 482.39818 228.66117 481.62137 225.6875 482.59375 C 222.71423 483.56643 220.71978 485.99215 219.6875 489.84375 C 218.56717 494.0258 219.41366 497.62754 222.25 500.6875 C 225.08674 503.74773 229.97329 506.23615 236.90625 508.09375 C 245.82049 510.48239 252.87063 511.05598 258.03125 509.84375 C 263.16271 508.74183 270.35244 503.6685 279.625 494.59375 C 306.28958 468.5943 326.57212 453.12864 340.5 448.25 C 354.42805 443.37173 374.49562 444.45083 400.6875 451.46875 C 419.72618 456.57033 433.17014 462.56264 441 469.4375 C 448.82983 476.31269 454.09403 486.94151 456.78125 501.34375 C 459.46841 515.74626 458.54109 531.42738 454 548.375 C 449.01653 566.97354 441.22324 581.89253 430.65625 593.15625 C 420.08925 604.42005 408.82978 610.62872 396.84375 611.78125 C 384.85777 612.93383 368.84168 610.83556 348.8125 605.46875 L 331.3125 600.78125 L 348.625 536.25 L 381.125 544.96875 C 391.1396 547.65223 397.83967 548.45548 401.1875 547.40625 C 404.53537 546.3572 406.82403 543.52845 408.0625 538.90625 C 409.301 534.28425 408.40217 530.35423 405.375 527.125 C 402.34787 523.89599 397.24704 521.32308 390.09375 519.40625 C 374.35663 515.18961 363.49229 514.56813 357.5 517.5625 C 351.47835 520.66716 340.49609 529.35323 324.53125 543.59375 C 308.45656 557.80497 297.08261 567.02344 290.40625 571.25 C 283.73015 575.47669 275.30965 578.19837 265.1875 579.4375 C 255.06566 580.67674 242.9154 579.39774 228.71875 575.59375 C 208.24964 570.10908 194.00137 563.48216 185.9375 555.71875 C 177.87411 547.9555 172.71197 537.53307 170.5 524.4375 C 168.28854 511.34215 169.42083 496.53891 173.84375 480.03125 C 178.68 461.9832 185.69923 447.39812 194.9375 436.25 C 204.17622 425.10228 213.78538 418.62833 223.75 416.875 C 225.61844 416.54633 227.67269 416.34822 229.9375 416.28125 z M 599.59375 420 C 592.29371 420.14045 585.12696 421.93252 578.0625 425.40625 C 569.36818 429.68206 561.87657 437.33923 555.625 448.34375 C 549.37389 459.34867 541.77528 481.62238 532.78125 515.1875 L 518.84375 567.1875 L 786.09375 638.8125 L 809.59375 551.15625 C 814.04638 534.5388 816.44795 521.83419 816.84375 513.09375 C 817.23948 504.35359 815.90692 496.58646 812.84375 489.75 C 809.78052 482.91387 804.51541 477.26731 797.03125 472.84375 C 789.54706 468.42055 773.80344 462.99104 749.8125 456.5625 L 656.21875 431.5 C 630.90737 424.71802 613.73943 420.93058 604.6875 420.15625 C 602.99033 420.01115 601.27837 419.96759 599.59375 420 z M 597.34375 491.8125 C 597.7759 491.7919 598.20403 491.79455 598.65625 491.8125 C 602.2744 491.95643 610.14466 493.6315 622.25 496.875 L 726.09375 524.6875 C 743.92191 529.46465 754.50869 533.55026 757.90625 536.9375 C 761.30386 540.32497 761.68341 547.04804 759 557.0625 L 583.1875 509.9375 C 585.22236 502.34419 587.41727 497.38634 589.75 495.0625 C 591.79147 493.02942 594.3187 491.95668 597.34375 491.8125 z M 191.46875 590.875 C 193.15337 590.84259 194.83408 590.88615 196.53125 591.03125 C 205.58318 591.80558 222.78237 595.59302 248.09375 602.375 L 341.6875 627.4375 C 365.67844 633.86604 381.42206 639.29555 388.90625 643.71875 C 396.39041 648.14231 401.65552 653.78887 404.71875 660.625 C 407.78192 667.46146 409.11448 675.22859 408.71875 683.96875 C 408.32295 692.70919 405.89013 705.4138 401.4375 722.03125 L 377.96875 809.6875 L 110.71875 738.0625 L 124.625 686.0625 C 133.61903 652.49738 141.24889 630.22367 147.5 619.21875 C 153.75157 608.21423 161.24318 600.55706 169.9375 596.28125 C 177.00196 592.80752 184.16871 591.01545 191.46875 590.875 z M 547.34375 599.96875 C 540.09888 600.11755 533.42345 601.77592 527.3125 604.9375 C 520.32897 608.55117 513.98045 615.05424 508.28125 624.4375 C 502.5825 633.82115 497.19715 647.9778 492.125 666.90625 L 473.375 736.875 L 740.625 808.5 L 759.25 739 L 651.625 710.15625 L 656.625 691.5 C 660.6944 676.31323 661.87952 663.46748 660.21875 652.9375 C 658.55813 642.40785 654.30753 634.33418 647.4375 628.71875 C 640.56765 623.10371 628.58913 618.00832 611.53125 613.4375 L 588.25 607.1875 C 571.52254 602.70557 558.93411 600.32226 550.46875 600 C 549.41063 599.95977 548.37873 599.94749 547.34375 599.96875 z M 552.84375 661.4375 C 556.20472 661.36774 560.45589 662.02963 565.59375 663.40625 L 587.5625 669.28125 C 597.46715 671.93531 603.65218 674.93362 606.125 678.25 C 608.59808 681.56667 608.96042 686.39848 607.25 692.78125 C 606.86679 694.21203 606.35971 695.92371 605.71875 697.875 L 537.71875 679.65625 C 540.13695 670.63229 543.10726 665.03051 546.625 662.90625 C 548.16418 661.97702 550.22966 661.49176 552.84375 661.4375 z M 189.21875 662.6875 C 186.1937 662.83168 183.63522 663.90442 181.59375 665.9375 C 179.26102 668.26134 177.09736 673.21919 175.0625 680.8125 L 350.84375 727.9375 C 353.52716 717.92304 353.17886 711.19997 349.78125 707.8125 C 346.38369 704.42526 335.76566 700.33965 317.9375 695.5625 L 214.125 667.75 C 202.01966 664.5065 194.1494 662.83143 190.53125 662.6875 C 190.07903 662.66955 189.6509 662.6669 189.21875 662.6875 z "
       style="fill:url(#radialGradient3779);fill-opacity:1.0;stroke:none" />
  </g>
</svg>
