<?xml version="1.0" encoding="UTF-8" standalone="no"?>
<!-- Created with Inkscape (http://www.inkscape.org/) -->

<svg
   xmlns:dc="http://purl.org/dc/elements/1.1/"
   xmlns:cc="http://creativecommons.org/ns#"
   xmlns:rdf="http://www.w3.org/1999/02/22-rdf-syntax-ns#"
   xmlns:svg="http://www.w3.org/2000/svg"
   xmlns="http://www.w3.org/2000/svg"
   xmlns:sodipodi="http://sodipodi.sourceforge.net/DTD/sodipodi-0.dtd"
   xmlns:inkscape="http://www.inkscape.org/namespaces/inkscape"
   width="3584"
   height="1024"
   id="svg2"
   version="1.1"
   inkscape:version="0.48.4 r9939"
   sodipodi:docname="DSPD_Logo1.white.svg">
  <defs
     id="defs4">
    <linearGradient
       id="linearGradient3771">
      <stop
         style="stop-color:#d1d1d1;stop-opacity:1;"
         offset="0"
         id="stop3773" />
      <stop
         style="stop-color:#b2b2b2;stop-opacity:0;"
         offset="1"
         id="stop3775" />
    </linearGradient>
  </defs>
  <sodipodi:namedview
     id="base"
     pagecolor="#000000"
     bordercolor="#666666"
     borderopacity="1.0"
     inkscape:pageopacity="1"
     inkscape:pageshadow="2"
     inkscape:zoom="0.47022893"
     inkscape:cx="843.38588"
     inkscape:cy="508.89697"
     inkscape:document-units="px"
     inkscape:current-layer="layer1"
     showgrid="false"
     inkscape:window-width="1120"
     inkscape:window-height="896"
     inkscape:window-x="98"
     inkscape:window-y="39"
     inkscape:window-maximized="0"
     fit-margin-top="12"
     fit-margin-bottom="12"
     fit-margin-right="12"
     fit-margin-left="12"
     inkscape:showpageshadow="false" />
  <metadata
     id="metadata7">
    <rdf:RDF>
      <cc:Work
         rdf:about="">
        <dc:format>image/svg+xml</dc:format>
        <dc:type
           rdf:resource="http://purl.org/dc/dcmitype/StillImage" />
        <dc:title />
      </cc:Work>
    </rdf:RDF>
  </metadata>
  <g
     inkscape:label="Ebene 1"
     inkscape:groupmode="layer"
     id="layer1"
     transform="translate(0,-28.362183)">
    <path
       sodipodi:type="arc"
       style="fill:#000000;fill-opacity:1;stroke:none"
       id="path3848"
       sodipodi:cx="1103.3567"
       sodipodi:cy="179.07515"
       sodipodi:rx="131.22446"
       sodipodi:ry="119.17323"
       d="m 1234.5811,179.07515 c 0,65.81756 -58.7511,119.17323 -131.2244,119.17323 -72.4733,0 -131.22447,-53.35567 -131.22447,-119.17323 0,-65.81756 58.75117,-119.173233 131.22447,-119.173233 72.4733,0 131.2244,53.355673 131.2244,119.173233 z"
       transform="matrix(3.8026448,0,0,4.1871819,-3683.6736,-209.45804)" />
    <text
       xml:space="preserve"
       style="font-size:40.00000763px;font-style:normal;font-weight:normal;line-height:100%;letter-spacing:0px;word-spacing:0px;fill:#000000;fill-opacity:1;stroke:none;font-family:Sans"
       x="1051.6793"
       y="713.51196"
       id="text2989"
       sodipodi:linespacing="100%"><tspan
         sodipodi:role="line"
         id="tspan2991"
         x="1051.6793"
         y="713.51196"
         style="font-size:448.00006104px;font-style:normal;font-variant:normal;font-weight:900;font-stretch:normal;line-height:100%;letter-spacing:-10.00000095px;font-family:Kozuka Gothic Pro H;-inkscape-font-specification:Kozuka Gothic Pro H Heavy"
         rotate="0 0 0 0 0 0 0 0 0 0 0 0"><tspan
           style="letter-spacing:0px;fill:#ffffff"
           id="tspan3866">D</tspan><tspan
           style="font-size:384.00003052000000000px;font-style:normal;font-variant:normal;font-weight:bold;font-stretch:normal;letter-spacing:-10.00000095000000000px;fill:#b3b3b3;fill-opacity:1;font-family:Kozuka Gothic Pro M;-inkscape-font-specification:Kozuka Gothic Pro M Bold"
           id="tspan3009"><tspan
   style="letter-spacing:0px;fill:#b3b3b3"
   id="tspan3868">e</tspan>ath</tspan><tspan
           style="letter-spacing:10px;fill:#ffffff"
           id="tspan3870">S</tspan><tspan
           style="font-size:384.00003052000000000px;font-style:normal;font-variant:normal;font-weight:normal;font-stretch:normal;letter-spacing:10.00000095000000000px;fill:#b3b3b3;font-family:Kozuka Gothic Pro M;-inkscape-font-specification:Kozuka Gothic Pro M"
           id="tspan3019"><tspan
   style="letter-spacing:10px;fill:#b3b3b3"
   id="tspan3872">t</tspan>ar</tspan><tspan
           style="letter-spacing:10.00000095000000000px;fill:#ffffff"
           id="tspan3858">P</tspan><tspan
           style="fill:#ffffff"
           id="tspan2996">D</tspan></tspan></text>
    <path
       style="fill:#ffffff;fill-opacity:1;stroke:none;stroke-width:1;stroke-miterlimit:4;stroke-dasharray:none;stroke-opacity:1;fill-rule:nonzero"
       d="m 512.00004,40.361973 c -113.81884,0 -218.74164,38.0465 -302.78124,102.093727 l 79.3125,45.8125 -20,34.625 -92.0938,-53.1875 c -3.2543,2.94791 -6.4495,5.93722 -9.625,8.96875 l 113.1563,65.34375 -20,34.65625 L 138.1563,208.3307 C 59.669,296.63043 12,412.92694 12,540.36195 c 0,174.86774 89.7816,328.75959 225.75,418.125 L 527.68754,456.3307 336.5938,345.98695 l 26.2812,-45.5 -17.75,-10.25 40,-69.28125 208.84374,120.5625 56.8438,-98.46875 311.25003,179.71875 -350.87503,607.75 C 839.82027,984.50903 1012,782.54757 1012,540.36195 1012,264.21958 788.14244,40.361973 512.00004,40.361973 z M 246.5625,365.0182 c 1.2869,-0.034 2.5526,0.0143 3.8125,0.125 10.0792,0.88599 24.6446,6.8183 43.6875,17.81251 l 9.4688,5.46874 -33.4063,57.875 -17.7812,-10.25 c -8.288,-4.78496 -13.9698,-7.1071 -17.0938,-6.9375 -3.1237,0.17 -5.6935,1.98431 -7.6875,5.4375 -2.1645,3.74958 -2.2602,7.46646 -0.3125,11.15625 1.948,3.69016 6.0341,7.34881 12.25,10.9375 7.9923,4.61443 14.6077,6.99151 19.9063,7.15625 5.2418,0.26374 13.5384,-2.79063 24.8437,-9.15625 32.4852,-18.21224 56.0653,-27.86114 70.7813,-28.96875 14.716,-1.1072 33.8294,5.12976 57.31254,18.6875 17.0695,9.85532 28.4975,19.11413 34.2812,27.78125 5.7836,8.66744 8.1007,20.29925 6.9688,34.90625 -1.1321,14.60725 -6.0711,29.49268 -14.8438,44.6875 -9.6273,16.675 -21.0028,29.10502 -34.12504,37.25 -13.1222,8.14506 -25.6241,11.2077 -37.5,9.21875 -11.8759,-1.98889 -26.7923,-8.16337 -44.75,-18.53125 l -15.6875,-9.0625 33.4063,-57.875 29.1562,16.84375 c 8.9788,5.18401 15.2134,7.7095 18.7188,7.5625 3.5053,-0.14681 6.4511,-2.29334 8.8437,-6.4375 2.3926,-4.14396 2.557,-8.15981 0.4688,-12.0625 -2.0883,-3.90247 -6.3366,-7.70333 -12.75,-11.40625 -14.1096,-8.14603 -24.4369,-11.56017 -31,-10.21875 -6.6201,1.44035 -19.4872,6.97047 -38.5938,16.59375 -19.2051,9.56654 -32.5822,15.52043 -40.125,17.875 -7.5426,2.35477 -16.3708,2.82915 -26.4687,1.40625 -10.0977,-1.42271 -21.5217,-5.80751 -34.25,-13.15625 -18.3521,-10.59558 -30.4078,-20.69529 -36.1875,-30.28125 -5.7794,-9.58568 -8.0341,-20.9969 -6.7813,-34.21875 1.2532,-13.22151 6.1428,-27.23081 14.6875,-42.03125 9.3426,-16.18136 19.9099,-28.43527 31.7188,-36.81249 10.333,-7.32963 20.0229,-11.13673 29.0312,-11.37501 z m 354.34374,99 c -3.429,0.006 -6.9356,0.35776 -10.5,1.0625 -9.5047,1.87986 -18.707,7.33223 -27.5937,16.34375 -8.8864,9.01203 -22.0002,28.56266 -39.375,58.65625 l -26.9375,46.625 239.625,138.34375 45.375,-78.59375 c 8.6018,-14.8988 14.23053,-26.53482 16.87503,-34.875 2.6443,-8.33993 3.3769,-16.19743 2.1875,-23.59375 -1.1895,-7.39602 -4.8533,-14.19638 -10.93753,-20.40625 -6.0844,-6.20953 -19.8654,-15.51869 -41.375,-27.9375 l -83.9063,-48.4375 c -22.6936,-13.10195 -38.3319,-21.22175 -46.875,-24.3125 -5.3393,-1.93138 -10.8473,-2.88484 -16.5625,-2.875 z M 162.4375,523.42445 c 5.7151,-0.01 11.2545,0.97487 16.5938,2.90625 8.543,3.09075 24.1501,11.1793 46.8437,24.28125 l 83.9375,48.4375 c 21.5096,12.41881 35.2906,21.72797 41.375,27.9375 6.0842,6.20987 9.7167,13.04148 10.9063,20.4375 1.1893,7.39632 0.4568,15.25382 -2.1875,23.59375 -2.6446,8.34018 -8.242,19.94495 -16.8438,34.84375 l -45.375,78.59375 -239.625,-138.34375 26.9063,-46.625 c 17.3748,-30.09359 30.5198,-49.64422 39.4062,-58.65625 8.8867,-9.01152 18.089,-14.43264 27.5938,-16.3125 3.5643,-0.70474 7.0396,-1.08785 10.4687,-1.09375 z m 426.18754,10.46875 c 0.2491,-0.0126 0.4975,-0.004 0.75,0 1.2118,0.0213 2.4535,0.2531 3.75,0.65625 3.4576,1.07547 10.6154,4.73392 21.4687,11 l 93.0938,53.75 c 15.9842,9.22864 25.1886,15.91132 27.5937,20.0625 2.4051,4.15141 0.9964,10.74005 -4.1875,19.71875 l -157.625,-91.03125 c 3.9309,-6.80791 7.3328,-11.01535 10.1875,-12.65625 1.5614,-0.89715 3.2249,-1.41209 4.9688,-1.5 z M 150.9063,593.3307 c -2.0197,-0.0355 -3.9032,0.44344 -5.6875,1.46875 -2.8547,1.6409 -6.2567,5.87959 -10.1875,12.6875 l 157.625,91 c 5.1839,-8.9787 6.5613,-15.53609 4.1562,-19.6875 -2.4051,-4.15118 -11.5782,-10.86511 -27.5625,-20.09375 l -93.0937,-53.71875 c -10.8534,-6.26608 -18.0112,-9.95578 -21.4688,-11.03125 -1.2965,-0.40315 -2.5694,-0.60373 -3.7812,-0.625 z m 352.75004,31 c -2.9384,0.0425 -5.8696,0.4003 -8.75,1.03125 -7.6809,1.68306 -15.4727,6.31778 -23.4063,13.90625 -7.9332,7.58897 -16.7954,19.84179 -26.5937,36.8125 l -36.25004,62.78125 239.62494,138.34375 35.9688,-62.3125 -96.5,-55.71875 9.6562,-16.71875 c 7.8614,-13.61606 12.3476,-25.74273 13.4688,-36.34375 1.1212,-10.60066 -0.88,-19.48532 -6.0625,-26.6875 -5.1825,-7.20176 -15.4251,-15.23252 -30.7188,-24.0625 l -20.875,-12.03125 c -14.9974,-8.6586 -26.5314,-14.24772 -34.6249,-16.75 -5.0583,-1.5636 -10.0403,-2.32089 -14.9375,-2.25 z m -2.6563,61.6875 c 3.8539,-0.033 9.1274,1.87726 15.7813,5.71875 l 19.6874,11.375 c 8.8803,5.12713 14.0636,9.59411 15.5938,13.4375 1.5304,3.84374 0.6479,8.65241 -2.6563,14.375 -0.7404,1.28284 -1.6571,2.78109 -2.7812,4.5 l -61,-35.21875 c 4.6714,-8.0906 8.9898,-12.70233 12.9375,-13.84375 0.7402,-0.21394 1.5482,-0.33614 2.4375,-0.34375 z"
       id="path2993-1-7"
       inkscape:connector-curvature="0" />
  </g>
</svg>
