<?xml version="1.0" encoding="UTF-8" standalone="no"?>
<!-- Created with Inkscape (http://www.inkscape.org/) -->

<svg
   xmlns:dc="http://purl.org/dc/elements/1.1/"
   xmlns:cc="http://creativecommons.org/ns#"
   xmlns:rdf="http://www.w3.org/1999/02/22-rdf-syntax-ns#"
   xmlns:svg="http://www.w3.org/2000/svg"
   xmlns="http://www.w3.org/2000/svg"
   xmlns:xlink="http://www.w3.org/1999/xlink"
   xmlns:sodipodi="http://sodipodi.sourceforge.net/DTD/sodipodi-0.dtd"
   xmlns:inkscape="http://www.inkscape.org/namespaces/inkscape"
   width="4096"
   height="1024"
   id="svg2"
   version="1.1"
   inkscape:version="0.48.4 r9939"
   sodipodi:docname="DSPD_Logo1.svg">
  <defs
     id="defs4">
    <linearGradient
       id="linearGradient3771">
      <stop
         style="stop-color:#d1d1d1;stop-opacity:1;"
         offset="0"
         id="stop3773" />
      <stop
         style="stop-color:#b2b2b2;stop-opacity:0;"
         offset="1"
         id="stop3775" />
    </linearGradient>
    <radialGradient
       inkscape:collect="always"
       xlink:href="#linearGradient3771"
       id="radialGradient3777"
       cx="-116.73857"
       cy="141.01434"
       fx="-116.73857"
       fy="141.01434"
       r="500"
       gradientTransform="matrix(0.1715807,0.92678704,-0.71900895,0.13311375,576.6114,430.96021)"
       gradientUnits="userSpaceOnUse" />
  </defs>
  <sodipodi:namedview
     id="base"
     pagecolor="#ffffff"
     bordercolor="#666666"
     borderopacity="1.0"
     inkscape:pageopacity="0"
     inkscape:pageshadow="2"
     inkscape:zoom="0.24169922"
     inkscape:cx="1553.5838"
     inkscape:cy="512"
     inkscape:document-units="px"
     inkscape:current-layer="layer1"
     showgrid="false"
     inkscape:window-width="1120"
     inkscape:window-height="896"
     inkscape:window-x="1332"
     inkscape:window-y="69"
     inkscape:window-maximized="0"
     fit-margin-top="12"
     fit-margin-bottom="12"
     fit-margin-right="12"
     fit-margin-left="12" />
  <metadata
     id="metadata7">
    <rdf:RDF>
      <cc:Work
         rdf:about="">
        <dc:format>image/svg+xml</dc:format>
        <dc:type
           rdf:resource="http://purl.org/dc/dcmitype/StillImage" />
        <dc:title />
      </cc:Work>
    </rdf:RDF>
  </metadata>
  <g
     inkscape:label="Ebene 1"
     inkscape:groupmode="layer"
     id="layer1"
     transform="translate(0,-28.362183)">
    <path
       sodipodi:type="arc"
       style="fill:#000000;fill-opacity:1;fill-rule:evenodd;stroke:none"
       id="path2999"
       sodipodi:cx="580.52045"
       sodipodi:cy="462.3967"
       sodipodi:rx="121.77924"
       sodipodi:ry="131.23782"
       d="m 702.29969,462.3967 c 0,72.48065 -54.52242,131.23782 -121.77924,131.23782 -67.25682,0 -121.77925,-58.75717 -121.77925,-131.23782 0,-72.48065 54.52243,-131.23783 121.77925,-131.23783 67.25682,0 121.77924,58.75718 121.77924,131.23783 z"
       transform="matrix(4.10579,0,0,3.8098773,-1810.072,-1221.3125)" />
    <path
       style="fill:#4b4b4b;fill-opacity:1;stroke:none"
       d="m 573.423,40.362183 c -113.81884,0 -218.74161,38.046506 -302.78125,102.093747 l 79.3125,45.8125 -20,34.625 -92.09375,-53.1875 c -3.25431,2.94791 -6.44954,5.93722 -9.625,8.96875 l 113.15625,65.34375 -20,34.65625 -121.8125,-70.34375 C 121.09204,296.63066 73.423,412.92717 73.423,540.36218 c 0,174.86774 89.7816,328.75959 225.75,418.125 L 589.1105,456.33093 398.01675,345.98718 l 26.28125,-45.5 -17.75,-10.25 40,-69.28125 208.84375,120.5625 56.84375,-98.46875 311.25,179.71875 -350.875,607.74997 c 228.63274,-46.00914 400.8125,-247.9706 400.8125,-490.15622 0,-276.14237 -223.85763,-499.999997 -500,-499.999997 z M 307.9855,365.01843 c 1.2869,-0.034 2.55264,0.0143 3.8125,0.125 10.07915,0.88598 24.64464,6.81829 43.6875,17.8125 l 9.46875,5.46875 -33.40625,57.875 -17.78125,-10.25 c -8.28799,-4.78496 -13.96974,-7.1071 -17.09375,-6.9375 -3.12371,0.17 -5.69353,1.98431 -7.6875,5.4375 -2.16455,3.74958 -2.26021,7.46646 -0.3125,11.15625 1.94803,3.69016 6.03405,7.34881 12.25,10.9375 7.99227,4.61443 14.60773,6.99151 19.90625,7.15625 5.24181,0.26374 13.53842,-2.79063 24.84375,-9.15625 32.48516,-18.21224 56.06526,-27.86114 70.78125,-28.96875 14.71605,-1.1072 33.82945,5.12976 57.3125,18.6875 17.06957,9.85532 28.49753,19.11413 34.28125,27.78125 5.7836,8.66744 8.10067,20.29925 6.96875,34.90625 -1.13205,14.60725 -6.07102,29.49268 -14.84375,44.6875 -9.62732,16.675 -21.00281,29.10502 -34.125,37.25 -13.12223,8.14506 -25.62409,11.2077 -37.5,9.21875 -11.87587,-1.98889 -26.79233,-8.16337 -44.75,-18.53125 l -15.6875,-9.0625 33.40625,-57.875 29.15625,16.84375 c 8.97882,5.18401 15.21344,7.7095 18.71875,7.5625 3.50531,-0.14681 6.45116,-2.29334 8.84375,-6.4375 2.39257,-4.14396 2.55698,-8.15981 0.46875,-12.0625 -2.08825,-3.90247 -6.33657,-7.70333 -12.75,-11.40625 -14.10954,-8.14603 -24.43689,-11.56017 -31,-10.21875 -6.62001,1.44035 -19.48718,6.97047 -38.59375,16.59375 -19.20509,9.56654 -32.58221,15.52043 -40.125,17.875 -7.54256,2.35477 -16.37079,2.82915 -26.46875,1.40625 -10.09768,-1.42271 -21.52163,-5.80751 -34.25,-13.15625 -18.3521,-10.59558 -30.40772,-20.69529 -36.1875,-30.28125 -5.77936,-9.58568 -8.03403,-20.9969 -6.78125,-34.21875 1.25322,-13.22151 6.14279,-27.23081 14.6875,-42.03125 9.34264,-16.18136 19.90992,-28.43528 31.71875,-36.8125 10.33302,-7.32963 20.02298,-11.13672 29.03125,-11.375 z m 354.34375,99 c -3.42907,0.006 -6.93562,0.35776 -10.5,1.0625 -9.50472,1.87986 -18.70702,7.33223 -27.59375,16.34375 -8.8864,9.01203 -22.00014,28.56266 -39.375,58.65625 l -26.9375,46.625 239.625,138.34375 45.375,-78.59375 c 8.60183,-14.8988 14.2305,-26.53482 16.875,-34.875 2.64436,-8.33993 3.37689,-16.19743 2.1875,-23.59375 -1.18953,-7.39602 -4.85326,-14.19638 -10.9375,-20.40625 -6.08437,-6.20953 -19.86536,-15.51869 -41.375,-27.9375 l -83.90625,-48.4375 c -22.69361,-13.10195 -38.33191,-21.22175 -46.875,-24.3125 -5.33929,-1.93138 -10.84738,-2.88484 -16.5625,-2.875 z M 223.8605,523.42468 c 5.71512,-0.01 11.25446,0.97487 16.59375,2.90625 8.54309,3.09075 24.15014,11.1793 46.84375,24.28125 l 83.9375,48.4375 c 21.50964,12.41881 35.29063,21.72797 41.375,27.9375 6.08424,6.20987 9.71672,13.04148 10.90625,20.4375 1.18939,7.39632 0.45686,15.25382 -2.1875,23.59375 -2.6445,8.34018 -8.24192,19.94495 -16.84375,34.84375 l -45.375,78.59375 -239.625,-138.34375 26.90625,-46.625 c 17.37486,-30.09359 30.51985,-49.64422 39.40625,-58.65625 8.88673,-9.01152 18.08903,-14.43264 27.59375,-16.3125 3.56438,-0.70474 7.03968,-1.08785 10.46875,-1.09375 z m 426.1875,10.46875 c 0.24913,-0.0126 0.49754,-0.004 0.75,0 1.2118,0.0213 2.4535,0.2531 3.75,0.65625 3.45761,1.07547 10.61537,4.73392 21.46875,11 l 93.09375,53.75 c 15.98426,9.22864 25.18864,15.91132 27.59375,20.0625 2.40509,4.15141 0.99641,10.74005 -4.1875,19.71875 l -157.625,-91.03125 c 3.93082,-6.80791 7.3328,-11.01535 10.1875,-12.65625 1.56132,-0.89715 3.22485,-1.41209 4.96875,-1.5 z m -437.71875,59.4375 c -2.01966,-0.0355 -3.90313,0.44344 -5.6875,1.46875 -2.8547,1.6409 -6.25668,5.87959 -10.1875,12.6875 l 157.625,91 c 5.18391,-8.9787 6.56134,-15.53609 4.15625,-19.6875 -2.40511,-4.15118 -11.57824,-10.86511 -27.5625,-20.09375 l -93.09375,-53.71875 c -10.85338,-6.26608 -18.01114,-9.95578 -21.46875,-11.03125 -1.2965,-0.40315 -2.56945,-0.60373 -3.78125,-0.625 z m 352.75,31 c -2.93838,0.0425 -5.86957,0.4003 -8.75,1.03125 -7.68085,1.68306 -15.47268,6.31778 -23.40625,13.90625 -7.93323,7.58897 -16.79539,19.84179 -26.59375,36.8125 l -36.25,62.78125 239.625,138.34375 35.96875,-62.3125 -96.5,-55.71875 9.65625,-16.71875 c 7.86136,-13.61606 12.34757,-25.74273 13.46875,-36.34375 1.12124,-10.60066 -0.87994,-19.48532 -6.0625,-26.6875 -5.18249,-7.20176 -15.42512,-15.23252 -30.71875,-24.0625 l -20.875,-12.03125 c -14.99747,-8.6586 -26.5315,-14.24772 -34.625,-16.75 -5.05829,-1.5636 -10.0402,-2.32089 -14.9375,-2.25 z m -2.65625,61.6875 c 3.85387,-0.033 9.12742,1.87726 15.78125,5.71875 l 19.6875,11.375 c 8.88024,5.12713 14.06353,9.59411 15.59375,13.4375 1.53039,3.84374 0.64787,8.65241 -2.65625,14.375 -0.74047,1.28284 -1.6571,2.78109 -2.78125,4.5 l -61,-35.21875 c 4.67137,-8.0906 8.98982,-12.70233 12.9375,-13.84375 0.74024,-0.21394 1.54815,-0.33614 2.4375,-0.34375 z"
       id="path2993"
       inkscape:connector-curvature="0" />
    <path
       id="path3001"
       d="m 573.423,40.362183 c -113.81884,0 -218.74161,38.046506 -302.78125,102.093747 l 79.3125,45.8125 -20,34.625 -92.09375,-53.1875 c -3.25431,2.94791 -6.44954,5.93722 -9.625,8.96875 l 113.15625,65.34375 -20,34.65625 -121.8125,-70.34375 C 121.09204,296.63066 73.423,412.92717 73.423,540.36218 c 0,174.86774 89.7816,328.75959 225.75,418.125 L 589.1105,456.33093 398.01675,345.98718 l 26.28125,-45.5 -17.75,-10.25 40,-69.28125 208.84375,120.5625 56.84375,-98.46875 311.25,179.71875 -350.875,607.74997 c 228.63274,-46.00914 400.8125,-247.9706 400.8125,-490.15622 0,-276.14237 -223.85763,-499.999997 -500,-499.999997 z M 307.9855,365.01843 c 1.2869,-0.034 2.55264,0.0143 3.8125,0.125 10.07915,0.88598 24.64464,6.81829 43.6875,17.8125 l 9.46875,5.46875 -33.40625,57.875 -17.78125,-10.25 c -8.28799,-4.78496 -13.96974,-7.1071 -17.09375,-6.9375 -3.12371,0.17 -5.69353,1.98431 -7.6875,5.4375 -2.16455,3.74958 -2.26021,7.46646 -0.3125,11.15625 1.94803,3.69016 6.03405,7.34881 12.25,10.9375 7.99227,4.61443 14.60773,6.99151 19.90625,7.15625 5.24181,0.26374 13.53842,-2.79063 24.84375,-9.15625 32.48516,-18.21224 56.06526,-27.86114 70.78125,-28.96875 14.71605,-1.1072 33.82945,5.12976 57.3125,18.6875 17.06957,9.85532 28.49753,19.11413 34.28125,27.78125 5.7836,8.66744 8.10067,20.29925 6.96875,34.90625 -1.13205,14.60725 -6.07102,29.49268 -14.84375,44.6875 -9.62732,16.675 -21.00281,29.10502 -34.125,37.25 -13.12223,8.14506 -25.62409,11.2077 -37.5,9.21875 -11.87587,-1.98889 -26.79233,-8.16337 -44.75,-18.53125 l -15.6875,-9.0625 33.40625,-57.875 29.15625,16.84375 c 8.97882,5.18401 15.21344,7.7095 18.71875,7.5625 3.50531,-0.14681 6.45116,-2.29334 8.84375,-6.4375 2.39257,-4.14396 2.55698,-8.15981 0.46875,-12.0625 -2.08825,-3.90247 -6.33657,-7.70333 -12.75,-11.40625 -14.10954,-8.14603 -24.43689,-11.56017 -31,-10.21875 -6.62001,1.44035 -19.48718,6.97047 -38.59375,16.59375 -19.20509,9.56654 -32.58221,15.52043 -40.125,17.875 -7.54256,2.35477 -16.37079,2.82915 -26.46875,1.40625 -10.09768,-1.42271 -21.52163,-5.80751 -34.25,-13.15625 -18.3521,-10.59558 -30.40772,-20.69529 -36.1875,-30.28125 -5.77936,-9.58568 -8.03403,-20.9969 -6.78125,-34.21875 1.25322,-13.22151 6.14279,-27.23081 14.6875,-42.03125 9.34264,-16.18136 19.90992,-28.43528 31.71875,-36.8125 10.33302,-7.32963 20.02298,-11.13672 29.03125,-11.375 z m 354.34375,99 c -3.42907,0.006 -6.93562,0.35776 -10.5,1.0625 -9.50472,1.87986 -18.70702,7.33223 -27.59375,16.34375 -8.8864,9.01203 -22.00014,28.56266 -39.375,58.65625 l -26.9375,46.625 239.625,138.34375 45.375,-78.59375 c 8.60183,-14.8988 14.2305,-26.53482 16.875,-34.875 2.64436,-8.33993 3.37689,-16.19743 2.1875,-23.59375 -1.18953,-7.39602 -4.85326,-14.19638 -10.9375,-20.40625 -6.08437,-6.20953 -19.86536,-15.51869 -41.375,-27.9375 l -83.90625,-48.4375 c -22.69361,-13.10195 -38.33191,-21.22175 -46.875,-24.3125 -5.33929,-1.93138 -10.84738,-2.88484 -16.5625,-2.875 z M 223.8605,523.42468 c 5.71512,-0.01 11.25446,0.97487 16.59375,2.90625 8.54309,3.09075 24.15014,11.1793 46.84375,24.28125 l 83.9375,48.4375 c 21.50964,12.41881 35.29063,21.72797 41.375,27.9375 6.08424,6.20987 9.71672,13.04148 10.90625,20.4375 1.18939,7.39632 0.45686,15.25382 -2.1875,23.59375 -2.6445,8.34018 -8.24192,19.94495 -16.84375,34.84375 l -45.375,78.59375 -239.625,-138.34375 26.90625,-46.625 c 17.37486,-30.09359 30.51985,-49.64422 39.40625,-58.65625 8.88673,-9.01152 18.08903,-14.43264 27.59375,-16.3125 3.56438,-0.70474 7.03968,-1.08785 10.46875,-1.09375 z m 426.1875,10.46875 c 0.24913,-0.0126 0.49754,-0.004 0.75,0 1.2118,0.0213 2.4535,0.2531 3.75,0.65625 3.45761,1.07547 10.61537,4.73392 21.46875,11 l 93.09375,53.75 c 15.98426,9.22864 25.18864,15.91132 27.59375,20.0625 2.40509,4.15141 0.99641,10.74005 -4.1875,19.71875 l -157.625,-91.03125 c 3.93082,-6.80791 7.3328,-11.01535 10.1875,-12.65625 1.56132,-0.89715 3.22485,-1.41209 4.96875,-1.5 z m -437.71875,59.4375 c -2.01966,-0.0355 -3.90313,0.44344 -5.6875,1.46875 -2.8547,1.6409 -6.25668,5.87959 -10.1875,12.6875 l 157.625,91 c 5.18391,-8.9787 6.56134,-15.53609 4.15625,-19.6875 -2.40511,-4.15118 -11.57824,-10.86511 -27.5625,-20.09375 l -93.09375,-53.71875 c -10.85338,-6.26608 -18.01114,-9.95578 -21.46875,-11.03125 -1.2965,-0.40315 -2.56945,-0.60373 -3.78125,-0.625 z m 352.75,31 c -2.93838,0.0425 -5.86957,0.4003 -8.75,1.03125 -7.68085,1.68306 -15.47268,6.31778 -23.40625,13.90625 -7.93323,7.58897 -16.79539,19.84179 -26.59375,36.8125 l -36.25,62.78125 239.625,138.34375 35.96875,-62.3125 -96.5,-55.71875 9.65625,-16.71875 c 7.86136,-13.61606 12.34757,-25.74273 13.46875,-36.34375 1.12124,-10.60066 -0.87994,-19.48532 -6.0625,-26.6875 -5.18249,-7.20176 -15.42512,-15.23252 -30.71875,-24.0625 l -20.875,-12.03125 c -14.99747,-8.6586 -26.5315,-14.24772 -34.625,-16.75 -5.05829,-1.5636 -10.0402,-2.32089 -14.9375,-2.25 z m -2.65625,61.6875 c 3.85387,-0.033 9.12742,1.87726 15.78125,5.71875 l 19.6875,11.375 c 8.88024,5.12713 14.06353,9.59411 15.59375,13.4375 1.53039,3.84374 0.64787,8.65241 -2.65625,14.375 -0.74047,1.28284 -1.6571,2.78109 -2.78125,4.5 l -61,-35.21875 c 4.67137,-8.0906 8.98982,-12.70233 12.9375,-13.84375 0.74024,-0.21394 1.54815,-0.33614 2.4375,-0.34375 z"
       style="fill:url(#radialGradient3777);fill-opacity:1;stroke:none"
       inkscape:connector-curvature="0" />
    <text
       xml:space="preserve"
       style="font-size:40.00000381px;font-style:normal;font-weight:normal;line-height:100%;letter-spacing:-25.00000191px;word-spacing:0px;fill:#000000;fill-opacity:1;stroke:none;font-family:Sans"
       x="1107.7955"
       y="752.93445"
       id="text2989"
       sodipodi:linespacing="100%"><tspan
         sodipodi:role="line"
         id="tspan2991"
         x="1107.7955"
         y="752.93445"
         style="font-size:500.00003052px;font-style:normal;font-variant:normal;font-weight:900;font-stretch:normal;line-height:100%;letter-spacing:-25.00000191px;font-family:Kozuka Gothic Pro H;-inkscape-font-specification:Kozuka Gothic Pro H Heavy"
         rotate="0 0 0 0 0 0 0 0 0 0 0 0 0"><tspan
           style="font-size:550px;letter-spacing:-25.00000191px"
           id="tspan3029">D</tspan><tspan
           style="font-size:490.00003052px;font-style:normal;font-variant:normal;font-weight:bold;font-stretch:normal;letter-spacing:-25.00000191px;fill:#4d4d4d;fill-opacity:1;font-family:Kozuka Gothic Pro M;-inkscape-font-specification:Kozuka Gothic Pro M Bold"
           id="tspan3009">eath</tspan><tspan
           style="font-size:550px;letter-spacing:-25.00000191px"
           id="tspan3027">S</tspan><tspan
           style="font-size:490.00003052px;font-style:normal;font-variant:normal;font-weight:normal;font-stretch:normal;letter-spacing:-25.00000191px;fill:#4d4d4d;font-family:Kozuka Gothic Pro M;-inkscape-font-specification:Kozuka Gothic Pro M"
           id="tspan3019">tar</tspan><tspan
           style="font-size:550px;letter-spacing:-25.00000191px"
           id="tspan3031"> PD</tspan></tspan></text>
  </g>
</svg>
